{
  "accessors": [
    {
      "bufferView": 0,
      "componentType": 5125,
      "count": 294,
      "type": "SCALAR"
    },
    {
      "bufferView": 1,
      "componentType": 5126,
      "count": 103,
      "max": [
        0.013215899596147627,
        -0.002004684175953557,
        0.005599999858532097
      ],
      "min": [
        -0.013166416446931107,
        -0.023065919981770724,
        -0.005599999858532102
      ],
      "type": "VEC3"
    },
    {
      "bufferView": 2,
      "componentType": 5126,
      "count": 103,
      "max": [
        0.9999999999997937,
        0.9999999999578344,
        1.0
      ],
      "min": [
        -0.9999999999997937,
        -0.9999999999997937,
        -1.0
      ],
      "type": "VEC3"
    },
    {
      "bufferView": 3,
      "componentType": 5126,
      "count": 103,
      "max": [
        1.0,
        0.9874111262671307
      ],
      "min": [
        0.0,
        0.0
      ],
      "type": "VEC2"
    },
    {
      "bufferView": 4,
      "componentType": 5125,
      "count": 294,
      "type": "SCALAR"
    },
    {
      "bufferView": 5,
      "componentType": 5126,
      "count": 107,
      "max": [
        0.02242226507811576,
        0.023065919981770718,
        0.005599999858532102
      ],
      "min": [
        -0.02242226507811577,
        0.0072271552546145056,
        -0.005599999858532102
      ],
      "type": "VEC3"
    },
    {
      "bufferView": 6,
      "componentType": 5126,
      "count": 107,
      "max": [
        0.9999999999999719,
        0.9999999999999719,
        1.0
      ],
      "min": [
        -0.9999999999999719,
        -0.9999999998337004,
        -1.0
      ],
      "type": "VEC3"
    },
    {
      "bufferView": 7,
      "componentType": 5126,
      "count": 107,
      "max": [
        1.0,
        0.9423014267784873
      ],
      "min": [
        0.0,
        0.0
      ],
      "type": "VEC2"
    }
  ],
  "asset": {
    "generator": "Adobe Illustrator",
    "version": "2.0"
  },
  "bufferViews": [
    {
      "buffer": 0,
      "byteLength": 1176,
      "target": 34963
    },
    {
      "buffer": 0,
      "byteLength": 1236,
      "byteOffset": 1176,
      "target": 34962
    },
    {
      "buffer": 0,
      "byteLength": 1236,
      "byteOffset": 2412,
      "target": 34962
    },
    {
      "buffer": 0,
      "byteLength": 824,
      "byteOffset": 3648,
      "target": 34962
    },
    {
      "buffer": 0,
      "byteLength": 1176,
      "byteOffset": 4472,
      "target": 34963
    },
    {
      "buffer": 0,
      "byteLength": 1284,
      "byteOffset": 5648,
      "target": 34962
    },
    {
      "buffer": 0,
      "byteLength": 1284,
      "byteOffset": 6932,
      "target": 34962
    },
    {
      "buffer": 0,
      "byteLength": 856,
      "byteOffset": 8216,
      "target": 34962
    }
  ],
  "buffers": [
    {
      "byteLength": 9072,
      "uri": "data:application/octet-stream;base64,"
    }
  ],
  "materials": [
    {
      "doubleSided": true,
      "pbrMetallicRoughness": {
        "baseColorFactor": [
          0.1796875,
          0.27734375,
          0.1484375,
          1.0
        ],
        "metallicFactor": 0.0,
        "roughnessFactor": 0.4000000059604645
      }
    },
    {
      "doubleSided": true,
      "pbrMetallicRoughness": {
        "baseColorFactor": [
          0.1796875,
          0.27734375,
          0.1484375,
          1.0
        ],
        "metallicFactor": 0.0,
        "roughnessFactor": 0.4000000059604645
      }
    }
  ],
  "meshes": [
    {
      "primitives": [
        {
          "attributes": {
            "NORMAL": 2,
            "POSITION": 1,
            "TEXCOORD_0": 3
          },
          "indices": 0,
          "material": 0,
          "mode": 4
        }
      ]
    },
    {
      "primitives": [
        {
          "attributes": {
            "NORMAL": 6,
            "POSITION": 5,
            "TEXCOORD_0": 7
          },
          "indices": 4,
          "material": 1,
          "mode": 4
        }
      ]
    }
  ],
  "nodes": [
    {
      "mesh": 0
    },
    {
      "mesh": 1
    }
  ],
  "scenes": [
    {
      "nodes": [
        0,
        1
      ]
    }
  ]
}
